<svg width="16" height="11" viewBox="0 0 16 11" fill="none" xmlns="http://www.w3.org/2000/svg">
<path d="M11.642 0.316406H3.36621V10.3164H11.642V0.316406Z" fill="#F5F5F5"/>
<path d="M1.12729 0.316406C0.506846 0.316406 0.00390625 0.828166 0.00390625 1.4595V9.17328C0.00390625 9.80459 0.506846 10.3164 1.12729 10.3164H3.36599V0.316406H1.12729Z" fill="#FF4B55"/>
<path d="M13.8803 0.316406H11.6416V10.3163H13.8803C14.5007 10.3163 15.0037 9.80459 15.0037 9.17325V1.4595C15.0037 0.828166 14.5007 0.316406 13.8803 0.316406Z" fill="#FF4B55"/>
<path d="M9.07315 6.47199L10.6078 5.57969L10.2557 5.40053C10.1569 5.35027 10.1004 5.24176 10.115 5.13036L10.2296 4.25625L9.57984 4.44859C9.43632 4.4911 9.28737 4.40125 9.25509 4.25276L9.19286 3.96658L8.58281 4.69306C8.49826 4.79376 8.33713 4.71685 8.35919 4.58631L8.61973 3.04486L8.22085 3.15584C8.10434 3.18828 7.98129 3.13432 7.92448 3.02587L7.50445 2.22483V2.22363L7.50416 2.22423L7.50384 2.22363V2.22483L7.08381 3.02587C7.02694 3.13429 6.9039 3.18825 6.78738 3.15584L6.38851 3.04486L6.64904 4.58631C6.6711 4.71682 6.50997 4.79376 6.42539 4.69309L5.81534 3.96661L5.75311 4.25279C5.72083 4.40131 5.57188 4.4911 5.42836 4.44862L4.77864 4.25628L4.89322 5.13039C4.90784 5.24176 4.8513 5.3503 4.75254 5.40056L4.40039 5.57969L5.93505 6.47202C6.09401 6.56446 6.16368 6.7605 6.09955 6.93498L5.96836 7.29202L7.28335 7.17779C7.35612 7.17147 7.41806 7.23109 7.41592 7.30535L7.37449 8.73757H7.63312L7.59164 7.30529C7.5895 7.231 7.65143 7.17141 7.72421 7.17773L9.03981 7.29202L8.90862 6.93498C8.84455 6.76047 8.91419 6.5644 9.07315 6.47199Z" fill="#FF4B55"/>
</svg>
