<svg width="16" height="11" viewBox="0 0 16 11" fill="none" xmlns="http://www.w3.org/2000/svg">
<path d="M13.8845 0.316406H1.1262C0.507911 0.316406 0.00390625 0.826245 0.00390625 1.45833V9.17449C0.00390625 9.80657 0.507911 10.3164 1.1262 10.3164H13.8816C14.5028 10.3164 15.0039 9.80359 15.0039 9.17449V1.45833C15.0068 0.826245 14.5028 0.316406 13.8845 0.316406Z" fill="#FF4B55"/>
<path d="M7.62522 2.33517L8.31676 4.44608L10.5027 4.46397C10.6258 4.46397 10.6756 4.62497 10.576 4.69653L8.81783 6.01734L9.47714 8.1372C9.51523 8.25646 9.38044 8.35485 9.28081 8.28031L7.50507 6.98931L5.72641 8.28329C5.62678 8.35485 5.49492 8.25646 5.53008 8.14018L6.18939 6.02032L4.43123 4.69951C4.3316 4.62497 4.38435 4.46695 4.50449 4.46695L6.69046 4.44906L7.382 2.33815C7.42303 2.21591 7.58712 2.21591 7.62522 2.33517Z" fill="#FFE15A"/>
</svg>
